<?xml version="1.0" encoding="iso-8859-1"?>
<!-- Uploaded to: SVG Repo, www.svgrepo.com, Generator: SVG Repo Mixer Tools -->
<svg version="1.1" id="Layer_1" xmlns="http://www.w3.org/2000/svg" xmlns:xlink="http://www.w3.org/1999/xlink" 
	 viewBox="0 0 509 509" xml:space="preserve">
<circle style="fill:#F0582F;" cx="254.5" cy="254.5" r="254.5"/>
<path style="fill:#97B6B1;" d="M400.1,203.2c-97,0-194.1,0-291.1,0c8.1-25.4,16.2-51.7,24.3-78.5c3.3-11.1,13.9-19.7,25.8-20.7
	c63.5-5.2,127.4-5.2,191,0c12,1,22.5,9.6,25.8,20.7C383.9,151.5,392,177.8,400.1,203.2z"/>
<path style="fill:#333842;" d="M391.5,210.9c-91.3,0-182.7,0-274,0c7.6-23.9,15.2-48.6,22.8-73.9c3.1-10.4,13-18.5,24.3-19.5
	c59.8-4.9,119.9-4.9,179.7,0c11.3,0.9,21.2,9,24.3,19.5C376.3,162.3,383.9,187,391.5,210.9z"/>
<g>
	<path style="fill:#080708;" d="M44.4,311.1v86.6c0,6.2,5,11.2,11.2,11.2h33.5c6.2,0,11.2-5,11.2-11.2v-86.6H44.4z"/>
	<path style="fill:#080708;" d="M408.7,311.1v86.6c0,6.2,5,11.2,11.2,11.2h33.6c6.2,0,11.2-5,11.2-11.2v-86.6H408.7z"/>
</g>
<path style="fill:#7CA4A4;" d="M165,346.4c0,17,13.8,30.8,30.8,30.8h117.5c17,0,30.8-13.8,30.8-30.8H165z"/>
<path style="fill:#333842;" d="M195.8,372.9c-13.2,0-24.1-9.6-26.2-22.2h169.8c-2.1,12.6-13,22.2-26.2,22.2H195.8z"/>
<path style="fill:#646B79;" d="M27.7,295c0,34.4,27.9,62.3,62.3,62.3h328.9c34.4,0,62.3-27.9,62.3-62.3H27.7z"/>
<path id="SVGCleanerId_0" style="fill:#7CA4A4;" d="M125.8,186.1c85.6-8.7,171.9-8.7,257.5,0c8.5,8.3,17,16.6,25.6,24.7
	c1.8,19.5,3.6,38.8,5.4,58c-7.4,8.5-14.8,17.2-22.2,26.1c-91.7,0-183.3,0-275,0c-7.5-18-15.1-35.6-22.6-52.7
	c5.3-15.4,10.7-31,16-46.8C115.5,192.4,120.6,189.3,125.8,186.1z"/>
<g>
	<path id="SVGCleanerId_0_1_" style="fill:#7CA4A4;" d="M125.8,186.1c85.6-8.7,171.9-8.7,257.5,0c8.5,8.3,17,16.6,25.6,24.7
		c1.8,19.5,3.6,38.8,5.4,58c-7.4,8.5-14.8,17.2-22.2,26.1c-91.7,0-183.3,0-275,0c-7.5-18-15.1-35.6-22.6-52.7
		c5.3-15.4,10.7-31,16-46.8C115.5,192.4,120.6,189.3,125.8,186.1z"/>
</g>
<path style="fill:#97B6B1;" d="M125.8,189.7c0,0-74.1,5.7-98.4,51.9c-6.2,11.9-9.1,32.1,3.8,53.4h73.1h12.6
	C117,295,86.9,244.3,125.8,189.7z"/>
<circle style="fill:#646B79;" cx="65.9" cy="256.1" r="31.6"/>
<circle style="fill:#FFFFFF;" cx="65.9" cy="256.1" r="24.3"/>
<path style="fill:#97B6B1;" d="M383.2,189.7c0,0,74.1,5.7,98.4,51.9c6.2,11.9,9.1,32.1-3.8,53.4h-73.1h-12.6
	C392,295,422.1,244.3,383.2,189.7z"/>
<circle style="fill:#646B79;" cx="443.1" cy="256.1" r="31.6"/>
<circle style="fill:#FFFFFF;" cx="443.1" cy="256.1" r="24.3"/>
<path style="fill:#DEDEDF;" d="M352,281.3c-64.8-7.3-130.3-7.3-195,0c-15.6,2.1-28.3,15.8-28.3,29.8s12.6,27.7,28.3,29.8
	c64.8,7.3,130.3,7.3,195,0c15.6-2.1,28.3-15.8,28.3-29.8C380.3,297.1,367.6,283.4,352,281.3z"/>
<g>
	<path style="fill:#F8B517;" d="M70.5,315.5c-6.6,0-12,5.4-12,12s5.4,12,12,12H110v-24H70.5z"/>
	<path style="fill:#F8B517;" d="M438.5,315.5c6.6,0,12,5.4,12,12s-5.4,12-12,12H399v-24H438.5z"/>
</g>
<g>
	<rect x="110" y="287.7" style="fill:#F1F3F7;" width="12.7" height="58.8"/>
	<rect x="386.3" y="287.7" style="fill:#F1F3F7;" width="12.7" height="58.8"/>
</g>
<g>
	<path style="fill:#333842;" d="M138.6,296.4c-2.8,3.5-4.7,7.6-5.4,11.8h242.5c-0.6-4.2-2.5-8.3-5.3-11.8H138.6z"/>
	<path style="fill:#333842;" d="M133.3,314c0.6,4.2,2.5,8.3,5.3,11.8h231.8c2.8-3.5,4.7-7.6,5.4-11.8H133.3z"/>
	<path style="fill:#333842;" d="M144.8,331.6c3.7,2.6,8.1,4.5,12.7,5.1c32.1,3.6,64.7,5.4,97,5.4l0,0c32.3,0,65-1.8,96.9-5.4
		c4.6-0.6,9-2.5,12.7-5.1H144.8z"/>
	<path style="fill:#333842;" d="M364.2,290.7c-3.7-2.6-8.1-4.5-12.7-5.1c-32.1-3.6-64.7-5.4-97-5.4s-65,1.8-96.9,5.4
		c-4.6,0.6-9,2.5-12.7,5.1H364.2z"/>
</g>
</svg>